<svg id="Livello_1" data-name="Livello 1" xmlns="http://www.w3.org/2000/svg" viewBox="0 0 681.47 347.85"><defs><style>.cls-1{fill:#ad191b;}.cls-2,.cls-3{fill:#fafafa;}.cls-2{stroke:#fff;stroke-miterlimit:10;}</style></defs><rect class="cls-1" x="273.37" y="19.73" width="20.87" height="308.38" rx="5.03"/><path class="cls-1" d="M416.83,143.08h10.66l32.83,86.13H446.84l-24.68-69.48-24.68,69.48H384Zm-17.7,55.74H446v11.49H399.13Z" transform="translate(-81.15 -123.35)"/><path class="cls-1" d="M480.8,227.34a18.68,18.68,0,0,1-7.5-8.56,32.36,32.36,0,0,1-2.57-13.5V191.71a33.2,33.2,0,0,1,2.51-13.56,18.5,18.5,0,0,1,7.32-8.56,21.68,21.68,0,0,1,11.54-2.93,19.45,19.45,0,0,1,10.32,2.84,21.23,21.23,0,0,1,7.57,8l-1.29,12.56a14.19,14.19,0,0,0-1.47-6.7,9.83,9.83,0,0,0-4.26-4.23,14.43,14.43,0,0,0-6.76-1.45q-6.19,0-9.59,3.73t-3.4,10.48v13.39q0,6.69,3.4,10.34t9.59,3.64a14,14,0,0,0,6.76-1.51,10.13,10.13,0,0,0,4.26-4.36,14.63,14.63,0,0,0,1.47-6.81l.86,13a17.54,17.54,0,0,1-16.84,10.72A22.88,22.88,0,0,1,480.8,227.34Zm.25,24.29a20.48,20.48,0,0,1-8.79-7.25l8.45-7.41a17.54,17.54,0,0,0,5.85,5,15.28,15.28,0,0,0,7.14,1.77q7.16,0,11.08-3.82t3.92-10.81V167.72h12.5v59.65A30.58,30.58,0,0,1,518,241.89a21.46,21.46,0,0,1-9.34,9.18,32,32,0,0,1-14.76,3.14A30.62,30.62,0,0,1,481.05,251.63Z" transform="translate(-81.15 -123.35)"/><path class="cls-1" d="M540.18,167.72h12.5v61.49h-12.5ZM578.77,192q0-6.51-3.49-10.07t-9.8-3.55q-6.13,0-9.47,3.14t-3.33,8.82l-1.29-11.85a22.1,22.1,0,0,1,7.69-8.58,19.09,19.09,0,0,1,10.5-3q10.35,0,16,6.54t5.66,18.51v37.32H578.77Z" transform="translate(-81.15 -123.35)"/><path class="cls-1" d="M621.21,226.9a21.73,21.73,0,0,1-9.53-9.39,31.64,31.64,0,0,1-3.27-15v-6.93A35.28,35.28,0,0,1,611.56,180a22.11,22.11,0,0,1,9.16-9.83,29,29,0,0,1,14.45-3.37,23.58,23.58,0,0,1,13.6,3.84,24,24,0,0,1,8.6,11.14,46.25,46.25,0,0,1,3,17.48v4H617.47v-9.71h31c-.36-5-1.7-8.92-4-11.7a11.45,11.45,0,0,0-9.28-4.18q-7.09,0-11,4.51T620.29,195v7.82q0,7.65,4.16,11.73t11.82,4.09a20.44,20.44,0,0,0,7.54-1.48,21.81,21.81,0,0,0,6.67-4.15l8.21,7.94a34.8,34.8,0,0,1-10.59,6.78,31.1,31.1,0,0,1-11.83,2.4A32.71,32.71,0,0,1,621.21,226.9Z" transform="translate(-81.15 -123.35)"/><path class="cls-1" d="M690,213.34a5.23,5.23,0,0,0,1,3.46,3.48,3.48,0,0,0,2.84,1.21h5.88v11.5h-7.34q-7.11,0-11-4.27t-3.89-12V143.08H690Z" transform="translate(-81.15 -123.35)"/><path class="cls-1" d="M726.31,213.34a5.23,5.23,0,0,0,1,3.46,3.48,3.48,0,0,0,2.84,1.21H736v11.5h-7.35q-7.1,0-11-4.27t-3.89-12V143.08h12.5Z" transform="translate(-81.15 -123.35)"/><path class="cls-1" d="M756.14,143.08h.47a6,6,0,0,1,6,6h0a6,6,0,0,1-6,6h-.47a6,6,0,0,1-6-6h0A6,6,0,0,1,756.14,143.08Zm0,24.64h.47a6,6,0,0,1,6,6.05v49.4a6,6,0,0,1-6,6h-.47a6,6,0,0,1-6-6v-49.4A6,6,0,0,1,756.14,167.72Z" transform="translate(-81.15 -123.35)"/><path class="cls-1" d="M391.71,248.64h56.75a2.59,2.59,0,0,1,2.56,2.62v6.27a2.59,2.59,0,0,1-2.56,2.62H391.71a2.58,2.58,0,0,1-2.56-2.62v-6.27A2.58,2.58,0,0,1,391.71,248.64Zm24.78,7.06h7.18a2.58,2.58,0,0,1,2.56,2.61v74a2.58,2.58,0,0,1-2.56,2.62h-7.18a2.59,2.59,0,0,1-2.56-2.62v-74A2.59,2.59,0,0,1,416.49,255.7Z" transform="translate(-81.15 -123.35)"/><path class="cls-1" d="M463.62,332.58a21.59,21.59,0,0,1-9.38-9.41,32.07,32.07,0,0,1-3.23-15v-6.94a35.78,35.78,0,0,1,3.11-15.6,22,22,0,0,1,9-9.85,28.18,28.18,0,0,1,14.24-3.38,22.86,22.86,0,0,1,13.38,3.85,24,24,0,0,1,8.47,11.15,47,47,0,0,1,2.93,17.5v1.42a2.59,2.59,0,0,1-2.56,2.62H462.5a2.58,2.58,0,0,1-2.56-2.62v-4.5a2.58,2.58,0,0,1,2.56-2.61h25.06a2.6,2.6,0,0,0,2.53-3,18.26,18.26,0,0,0-3.59-8.68,11.2,11.2,0,0,0-9.13-4.18q-7,0-10.83,4.51t-3.83,12.75v7.83q0,7.65,4.1,11.75c2.74,2.73,6.61,4.09,11.64,4.09a19.71,19.71,0,0,0,7.42-1.48A21.89,21.89,0,0,0,490.8,320a2.5,2.5,0,0,1,3.26.22l4.42,4.34a2.68,2.68,0,0,1-.21,4,33.93,33.93,0,0,1-8.18,4.84,30.18,30.18,0,0,1-11.64,2.4A31.81,31.81,0,0,1,463.62,332.58Z" transform="translate(-81.15 -123.35)"/><path class="cls-1" d="M529.67,332.64a21.43,21.43,0,0,1-9.25-9.14,30.38,30.38,0,0,1-3.2-14.47V298.88a29.75,29.75,0,0,1,3.2-14.29,21.33,21.33,0,0,1,9.25-9,31.77,31.77,0,0,1,14.63-3.11,35.38,35.38,0,0,1,9.19,1.15,27.27,27.27,0,0,1,7.75,3.36,21.65,21.65,0,0,1,4,3.26A2.66,2.66,0,0,1,565,284l-5.17,4.57a2.5,2.5,0,0,1-3.33,0,18.06,18.06,0,0,0-4.65-3,17.82,17.82,0,0,0-7.41-1.61c-4.75,0-8.42,1.31-11,3.92s-3.92,6.29-3.92,11V309q0,7.29,3.89,11.27,4.53,4.62,13.49,3.87l.44-.07a18.44,18.44,0,0,0,9.13-4.67,2.52,2.52,0,0,1,3.47,0l5.19,4.94a2.63,2.63,0,0,1,.1,3.74,22,22,0,0,1-4.05,3.25,27.57,27.57,0,0,1-7.75,3.29,36,36,0,0,1-9.13,1.13A31.52,31.52,0,0,1,529.67,332.64Z" transform="translate(-81.15 -123.35)"/><path class="cls-1" d="M583.1,248.64h7.18a2.59,2.59,0,0,1,2.56,2.62v81a2.59,2.59,0,0,1-2.56,2.62H583.1a2.58,2.58,0,0,1-2.56-2.62v-81A2.58,2.58,0,0,1,583.1,248.64Zm35.42,48.94q0-6.52-3.43-10.09t-9.65-3.56q-6,0-9.32,3.09l-.06.06a2.52,2.52,0,0,1-4.31-1.51l-.09-.84a2.66,2.66,0,0,1,.33-1.61,21.7,21.7,0,0,1,7.15-7.7,18.8,18.8,0,0,1,10.34-3q10.18,0,15.77,6.55t5.58,18.54v34.75a2.59,2.59,0,0,1-2.56,2.62h-7.19a2.59,2.59,0,0,1-2.56-2.62Z" transform="translate(-81.15 -123.35)"/><path class="cls-1" d="M405.51,432.78a48,48,0,0,1-11-3.56A46.62,46.62,0,0,1,385,423.3l7.93-9.25a36.48,36.48,0,0,0,11.43,6.4,41.77,41.77,0,0,0,13.56,2.13q9.85,0,15.3-3.46a11,11,0,0,0,5.43-9.82v-.06a10,10,0,0,0-2.47-7.14,14.74,14.74,0,0,0-6.37-3.91,75,75,0,0,0-10.08-2.35,1.77,1.77,0,0,0-.41,0,1,1,0,0,1-.4-.07l-.94-.17a102.53,102.53,0,0,1-14.83-3.35,20.94,20.94,0,0,1-9.78-6.82q-4-5-4.06-14.08v-.06a24.06,24.06,0,0,1,3.78-13.67,23.47,23.47,0,0,1,11-8.62,50.07,50.07,0,0,1,27-2,49.43,49.43,0,0,1,9.31,3,55.38,55.38,0,0,1,9,5l-7.25,9.61a43.31,43.31,0,0,0-10.34-5.43,31.14,31.14,0,0,0-10.33-1.81q-9.31,0-14.46,3.53a11.42,11.42,0,0,0-5.15,10v.06a9.24,9.24,0,0,0,2.65,7,16.26,16.26,0,0,0,6.62,3.76,104.75,104.75,0,0,0,11,2.52l.46.09.47.09.69.12.69.12a79.22,79.22,0,0,1,13.77,3.79,21.35,21.35,0,0,1,9.24,7.09q3.72,4.89,3.72,13.37V409a22.86,22.86,0,0,1-3.94,13.49A24.29,24.29,0,0,1,436,431a49.16,49.16,0,0,1-18,2.94A62.65,62.65,0,0,1,405.51,432.78Z" transform="translate(-81.15 -123.35)"/><path class="cls-1" d="M468.15,346.87h12.74v86.21H468.15Zm39.35,48.92q0-6.53-3.56-10.08t-10-3.56q-6.24,0-9.65,3.08t-3.4,8.72l-1.31-11.86a22.32,22.32,0,0,1,7.84-8.45,19.89,19.89,0,0,1,10.71-3q10.55,0,16.33,6.55t5.78,18.52v37.36H507.5Z" transform="translate(-81.15 -123.35)"/><path class="cls-1" d="M550,430.83a21.22,21.22,0,0,1-9.15-9.17,30.76,30.76,0,0,1-3.16-14.49v-10a30.16,30.16,0,0,1,3.16-14.32,21.1,21.1,0,0,1,9.15-9.07,35,35,0,0,1,28.85,0,21.2,21.2,0,0,1,9.15,9.07,30.28,30.28,0,0,1,3.15,14.32v10.2A30.45,30.45,0,0,1,588,421.73a21.43,21.43,0,0,1-9.15,9.1,34.7,34.7,0,0,1-28.85,0Zm24.76-12.34q3.65-4,3.65-11.14v-10.2q0-7.17-3.65-11.09t-10.34-3.91q-6.68,0-10.34,3.91t-3.65,11.09v10.2q0,7.17,3.65,11.14t10.34,4Q571.14,422.47,574.79,418.49Z" transform="translate(-81.15 -123.35)"/><path class="cls-1" d="M609.29,371.53H622V458.1H609.29Zm18.49,59.68a16.3,16.3,0,0,1-6.62-7.8l.87-12.86a14.1,14.1,0,0,0,1.5,6.76,10.16,10.16,0,0,0,4.34,4.27,14.78,14.78,0,0,0,6.9,1.48q6.32,0,9.78-3.65T648,409.13V395.79q0-6.77-3.46-10.5t-9.78-3.73a15.3,15.3,0,0,0-6.9,1.42,9.85,9.85,0,0,0-4.34,4.18,13.65,13.65,0,0,0-1.5,6.61l-1.31-11.86a21.82,21.82,0,0,1,7.68-8.33A19.67,19.67,0,0,1,639,370.65a22.47,22.47,0,0,1,11.77,2.93,18.62,18.62,0,0,1,7.46,8.57,32.57,32.57,0,0,1,2.56,13.57v13.41a31.28,31.28,0,0,1-2.62,13.4,18.81,18.81,0,0,1-7.68,8.5A23.71,23.71,0,0,1,638.33,434,19.76,19.76,0,0,1,627.78,431.21Z" transform="translate(-81.15 -123.35)"/><path class="cls-1" d="M293.61,196.52C297.26,240.85,264,280,219.36,283.9S137,245.59,131.89,210.74c-12.78-46.25,25.25-87.39,74.25-87.39C253.48,123.35,293.88,147.53,293.61,196.52Z" transform="translate(-81.15 -123.35)"/><ellipse class="cls-2" cx="88.93" cy="71.15" rx="12.31" ry="12.72"/><ellipse class="cls-2" cx="170.46" cy="67.69" rx="12.31" ry="12.72"/><path class="cls-1" d="M320.53,348.11c5,74.52-20.7,123.81-109.19,123.08-70.81-.59-109.69-27.91-109.18-123.08.37-68,48.89-123.07,109.18-123.07S316,280.3,320.53,348.11Z" transform="translate(-81.15 -123.35)"/><path class="cls-3" d="M293.57,354.82c4.26,69.44-35.88,81.64-79.06,85.68C167.24,444.93,126,410,134.34,356.44c11.83-75.73,16.58-82.44,80.17-84C255.3,271.37,289.36,286.18,293.57,354.82Z" transform="translate(-81.15 -123.35)"/><path class="cls-3" d="M246.34,295.68c-.3,0-.49.07-.49.1l9.42-.1h0c-9.14.18,6,0,6,0H223.75c-11.84-.52-10.18,0-26.78-.75l-13.09-.28c.34-1.79-18,1-18.42-.81l-18.28,5.27c-.2-.59,2.2-5.49,7.72-21.23,3.17-9-6.79-38.64,13.85-33.58a3.27,3.27,0,0,1,.53.17l8.34,3.26.45.21,11.2,6.11a2.61,2.61,0,0,1,.28.17,138.89,138.89,0,0,0,20.71,11.63,6.47,6.47,0,0,0,5.07-.07l13.88-7.37.19-.1,10.92-6.57.2-.11,8.46-4.46c21.45-10.6,22.27,21.72,22.27,21.72l1,9a50.45,50.45,0,0,0,.82,5c2.7,12.63,8.45,19.61,9.69,26.12,11,23.22-16.6-9.13-35.65-10.4-7-.47-12.17-3.21-15.67-2.9" transform="translate(-81.15 -123.35)"/><path class="cls-1" d="M102.11,336.8H96.28l-10,1.32c-6.38,0-5.59-9.68-4-14.3l6.4-17.33L97,286l7.47-17.31,8-16.38,5.64-11.48,15.36-33.6L121.06,334.36c-2.92,15.62-16.94,9-18.33,3Z" transform="translate(-81.15 -123.35)"/><path class="cls-1" d="M319.89,336.4l5.93,0,10.18,1.3c6.49,0,5.74-9.94,4.15-14.67l-6.43-17.74-8.39-21-7.52-17.7-8.07-16.74-5.69-11.74-15.46-34.37,12,130.24c2.89,16,17.19,9.17,18.63,3Z" transform="translate(-81.15 -123.35)"/><polygon class="cls-1" points="52.12 88.75 68.57 125.21 41.75 160.81 52.12 88.75"/><polygon class="cls-1" points="210.49 92.61 194.03 129.06 220.85 164.66 210.49 92.61"/><path class="cls-1" d="M81.15,341.49" transform="translate(-81.15 -123.35)"/></svg>