<svg id="Livello_1" data-name="Livello 1" xmlns="http://www.w3.org/2000/svg" viewBox="0 0 681.47 347.85"><defs><style>.cls-1,.cls-4{fill:#ad191b;}.cls-2,.cls-3{fill:#fafafa;}.cls-2{stroke:#fff;stroke-miterlimit:10;}.cls-4{font-size:68.39px;font-family:FranklinGothic-Medium, Franklin Gothic Medium;font-weight:500;}</style></defs><rect class="cls-1" x="273.37" y="19.73" width="20.87" height="308.38" rx="5.03"/><path class="cls-1" d="M426.92,127.88h10.66L470.41,214H456.93l-24.68-69.48L407.57,214H394.1Zm-17.7,55.75h46.86v11.49H409.22Z" transform="translate(-91.24 -108.15)"/><path class="cls-1" d="M490.89,212.15a18.78,18.78,0,0,1-7.5-8.56,32.4,32.4,0,0,1-2.57-13.51V176.52A33.08,33.08,0,0,1,483.33,163a18.55,18.55,0,0,1,7.32-8.56,21.77,21.77,0,0,1,11.54-2.93,19.54,19.54,0,0,1,10.32,2.84,21.3,21.3,0,0,1,7.57,8l-1.29,12.56a14.19,14.19,0,0,0-1.47-6.7,9.89,9.89,0,0,0-4.26-4.23,14.43,14.43,0,0,0-6.76-1.45q-6.19,0-9.59,3.73t-3.4,10.48v13.39q0,6.71,3.4,10.34t9.59,3.64a14,14,0,0,0,6.76-1.51,10.11,10.11,0,0,0,4.26-4.35,14.69,14.69,0,0,0,1.47-6.81l.86,13a17.61,17.61,0,0,1-6.22,7.64,17.84,17.84,0,0,1-10.62,3.08A23,23,0,0,1,490.89,212.15Zm.25,24.28a20.34,20.34,0,0,1-8.79-7.25l8.45-7.41a17.34,17.34,0,0,0,5.85,5,15.26,15.26,0,0,0,7.14,1.78q7.15,0,11.08-3.82T518.79,214V152.53h12.49v59.65a30.57,30.57,0,0,1-3.21,14.51,21.35,21.35,0,0,1-9.34,9.18A32,32,0,0,1,504,239,30.59,30.59,0,0,1,491.14,236.43Z" transform="translate(-91.24 -108.15)"/><path class="cls-1" d="M550.27,152.53h12.5V214h-12.5Zm38.58,24.22q0-6.51-3.49-10.07t-9.79-3.55q-6.14,0-9.47,3.14t-3.33,8.83l-1.29-11.85a22.19,22.19,0,0,1,7.68-8.59,19.23,19.23,0,0,1,10.51-3q10.35,0,16,6.54t5.67,18.51V214h-12.5Z" transform="translate(-91.24 -108.15)"/><path class="cls-1" d="M631.3,211.7a21.73,21.73,0,0,1-9.53-9.39,31.62,31.62,0,0,1-3.27-14.95v-6.93a35.25,35.25,0,0,1,3.15-15.58,22.08,22.08,0,0,1,9.16-9.84,29,29,0,0,1,14.45-3.37,23.51,23.51,0,0,1,13.6,3.85,24.09,24.09,0,0,1,8.6,11.13,46.28,46.28,0,0,1,3,17.48v4H627.56v-9.72h31q-.56-7.51-4-11.7a11.44,11.44,0,0,0-9.28-4.17q-7.11,0-11,4.5t-3.89,12.74v7.81q0,7.65,4.16,11.73t11.82,4.09a20.28,20.28,0,0,0,7.54-1.48,21.81,21.81,0,0,0,6.67-4.15l8.21,7.94a34.85,34.85,0,0,1-10.6,6.78,31,31,0,0,1-11.82,2.4A32.59,32.59,0,0,1,631.3,211.7Z" transform="translate(-91.24 -108.15)"/><path class="cls-1" d="M700.08,198.14a5.21,5.21,0,0,0,1,3.46,3.49,3.49,0,0,0,2.84,1.22h5.88v11.49h-7.35q-7.1,0-11-4.27t-3.89-12V127.88h12.5Z" transform="translate(-91.24 -108.15)"/><path class="cls-1" d="M736.39,198.14a5.27,5.27,0,0,0,1,3.46,3.52,3.52,0,0,0,2.85,1.22h5.88v11.49h-7.35q-7.1,0-11-4.27t-3.89-12V127.88h12.49Z" transform="translate(-91.24 -108.15)"/><path class="cls-1" d="M766.23,127.88h.47a6,6,0,0,1,6,6.05h0a6,6,0,0,1-6,6h-.47a6,6,0,0,1-6-6h0A6,6,0,0,1,766.23,127.88Zm0,24.65h.47a6,6,0,0,1,6,6V208a6,6,0,0,1-6,6h-.47a6,6,0,0,1-6-6v-49.4A6,6,0,0,1,766.23,152.53Z" transform="translate(-91.24 -108.15)"/><path class="cls-1" d="M401.8,233.44h56.75a2.58,2.58,0,0,1,2.55,2.62v6.28a2.58,2.58,0,0,1-2.55,2.61H401.8a2.58,2.58,0,0,1-2.56-2.61v-6.28A2.58,2.58,0,0,1,401.8,233.44Zm24.78,7.06h7.18a2.58,2.58,0,0,1,2.56,2.62v74a2.58,2.58,0,0,1-2.56,2.61h-7.18a2.59,2.59,0,0,1-2.56-2.61v-74A2.59,2.59,0,0,1,426.58,240.5Z" transform="translate(-91.24 -108.15)"/><path class="cls-1" d="M473.71,317.38a21.62,21.62,0,0,1-9.38-9.4,32.12,32.12,0,0,1-3.23-15v-6.94a35.78,35.78,0,0,1,3.11-15.6,22,22,0,0,1,9-9.85,28.27,28.27,0,0,1,14.23-3.38,22.88,22.88,0,0,1,13.39,3.86,24,24,0,0,1,8.47,11.15,47,47,0,0,1,2.93,17.5v1.42a2.59,2.59,0,0,1-2.56,2.61H472.59a2.58,2.58,0,0,1-2.56-2.61v-4.5a2.58,2.58,0,0,1,2.56-2.62h25.05a2.6,2.6,0,0,0,2.54-3,18.27,18.27,0,0,0-3.59-8.67,11.18,11.18,0,0,0-9.14-4.18q-7,0-10.82,4.5t-3.83,12.76v7.83q0,7.65,4.1,11.74c2.74,2.73,6.61,4.1,11.64,4.1a19.73,19.73,0,0,0,7.42-1.49,21.24,21.24,0,0,0,4.92-2.78,2.5,2.5,0,0,1,3.27.23l4.41,4.34a2.66,2.66,0,0,1-.2,4,33.61,33.61,0,0,1-8.18,4.84,30.18,30.18,0,0,1-11.64,2.4A31.81,31.81,0,0,1,473.71,317.38Z" transform="translate(-91.24 -108.15)"/><path class="cls-1" d="M539.76,317.44a21.43,21.43,0,0,1-9.25-9.14,30.35,30.35,0,0,1-3.2-14.47V283.69a29.79,29.79,0,0,1,3.2-14.3,21.31,21.31,0,0,1,9.25-9,31.64,31.64,0,0,1,14.63-3.12,35.38,35.38,0,0,1,9.19,1.16,27.54,27.54,0,0,1,7.75,3.35,21.23,21.23,0,0,1,4,3.27,2.64,2.64,0,0,1-.19,3.77L570,273.35a2.5,2.5,0,0,1-3.33,0,18.27,18.27,0,0,0-4.65-3,17.81,17.81,0,0,0-7.41-1.6q-7.12,0-11,3.91t-3.92,11v10.14q0,7.29,3.89,11.27Q548,309.72,557,309a3.32,3.32,0,0,0,.44-.06,18.6,18.6,0,0,0,9.13-4.67,2.51,2.51,0,0,1,3.47,0l5.19,4.94a2.65,2.65,0,0,1,.1,3.75,22.33,22.33,0,0,1-4.05,3.24,27.58,27.58,0,0,1-7.75,3.3,36,36,0,0,1-9.13,1.12A31.39,31.39,0,0,1,539.76,317.44Z" transform="translate(-91.24 -108.15)"/><path class="cls-1" d="M593.19,233.44h7.18a2.59,2.59,0,0,1,2.56,2.62v81a2.59,2.59,0,0,1-2.56,2.61h-7.18a2.58,2.58,0,0,1-2.56-2.61v-81A2.58,2.58,0,0,1,593.19,233.44Zm35.42,48.94q0-6.53-3.43-10.08t-9.65-3.56q-6,0-9.32,3.08l-.06.07a2.52,2.52,0,0,1-4.31-1.51l-.09-.84a2.69,2.69,0,0,1,.33-1.62,21.66,21.66,0,0,1,7.15-7.69,18.73,18.73,0,0,1,10.34-3q10.18,0,15.77,6.56t5.58,18.53v34.76a2.59,2.59,0,0,1-2.56,2.61h-7.19a2.59,2.59,0,0,1-2.56-2.61Z" transform="translate(-91.24 -108.15)"/><path class="cls-1" d="M415.6,417.59a49,49,0,0,1-11-3.56,46.66,46.66,0,0,1-9.53-5.93l7.93-9.25a36.48,36.48,0,0,0,11.43,6.4A41.5,41.5,0,0,0,428,407.39q9.86,0,15.3-3.47a11,11,0,0,0,5.43-9.81v-.06a10,10,0,0,0-2.47-7.15,14.89,14.89,0,0,0-6.37-3.91,73.62,73.62,0,0,0-10.08-2.34,1.35,1.35,0,0,0-.41-.06,1.35,1.35,0,0,1-.41-.06l-.93-.18A101.38,101.38,0,0,1,413.25,377a20.89,20.89,0,0,1-9.77-6.82q-4.07-4.95-4.06-14.08V356a24,24,0,0,1,3.78-13.66,23.48,23.48,0,0,1,11-8.63,50.07,50.07,0,0,1,27-2,48.75,48.75,0,0,1,9.31,3,53.44,53.44,0,0,1,9,5l-7.24,9.6A42.9,42.9,0,0,0,442,344a30.89,30.89,0,0,0-10.33-1.81q-9.31,0-14.46,3.53a11.39,11.39,0,0,0-5.15,10v.05a9.24,9.24,0,0,0,2.65,7,16.28,16.28,0,0,0,6.62,3.77,104.46,104.46,0,0,0,11,2.52l.47.09.47.08c.21.05.44.08.69.12l.69.12a78.27,78.27,0,0,1,13.77,3.8,21.33,21.33,0,0,1,9.24,7.08q3.72,4.89,3.72,13.37v.12a22.9,22.9,0,0,1-3.94,13.49,24.37,24.37,0,0,1-11.4,8.54,49.39,49.39,0,0,1-18,2.93A63.42,63.42,0,0,1,415.6,417.59Z" transform="translate(-91.24 -108.15)"/><path class="cls-1" d="M478.24,331.67H491v86.21H478.24Zm39.34,48.92q0-6.52-3.56-10.08T504,367q-6.24,0-9.65,3.08t-3.4,8.72l-1.31-11.86a22.45,22.45,0,0,1,7.83-8.45,20,20,0,0,1,10.72-3q10.54,0,16.33,6.55t5.77,18.53v37.35H517.58Z" transform="translate(-91.24 -108.15)"/><path class="cls-1" d="M560.11,415.63a21.28,21.28,0,0,1-9.14-9.16,30.8,30.8,0,0,1-3.16-14.5V382A30.19,30.19,0,0,1,551,367.63a21.18,21.18,0,0,1,9.14-9.07,35,35,0,0,1,28.86,0,21.26,21.26,0,0,1,9.15,9.07A30.31,30.31,0,0,1,601.27,382v10.2a30.42,30.42,0,0,1-3.15,14.38,21.43,21.43,0,0,1-9.15,9.1,34.73,34.73,0,0,1-28.86,0Zm24.77-12.33q3.64-4,3.65-11.15V382q0-7.17-3.65-11.08T574.54,367q-6.67,0-10.34,3.92T560.55,382v10.2q0,7.17,3.65,11.15t10.34,4Q581.22,407.27,584.88,403.3Z" transform="translate(-91.24 -108.15)"/><path class="cls-1" d="M619.38,356.34h12.74V442.9H619.38ZM637.87,416a16.23,16.23,0,0,1-6.62-7.79l.87-12.87a14.1,14.1,0,0,0,1.5,6.76,10.11,10.11,0,0,0,4.34,4.27,14.72,14.72,0,0,0,6.9,1.48c4.21,0,7.46-1.21,9.78-3.64s3.46-5.86,3.46-10.29V380.59q0-6.76-3.46-10.5c-2.32-2.49-5.57-3.73-9.78-3.73a15.24,15.24,0,0,0-6.9,1.42,9.8,9.8,0,0,0-4.34,4.18,13.65,13.65,0,0,0-1.5,6.61l-1.31-11.86a21.89,21.89,0,0,1,7.68-8.33,19.74,19.74,0,0,1,10.56-2.93,22.56,22.56,0,0,1,11.77,2.93,18.73,18.73,0,0,1,7.46,8.57,32.62,32.62,0,0,1,2.56,13.58v13.4a31.25,31.25,0,0,1-2.62,13.4,18.88,18.88,0,0,1-7.68,8.51,23.83,23.83,0,0,1-12.12,2.93A19.73,19.73,0,0,1,637.87,416Z" transform="translate(-91.24 -108.15)"/><path class="cls-1" d="M303.7,181.32c3.65,44.34-29.59,83.46-74.25,87.39S147,230.39,142,195.54c-12.78-46.25,25.25-87.39,74.25-87.39C263.57,108.15,304,132.33,303.7,181.32Z" transform="translate(-91.24 -108.15)"/><ellipse class="cls-2" cx="88.93" cy="71.15" rx="12.31" ry="12.72"/><ellipse class="cls-2" cx="170.46" cy="67.69" rx="12.31" ry="12.72"/><path class="cls-1" d="M330.61,332.92c5,74.52-20.69,123.81-109.18,123.07-70.81-.59-109.69-27.91-109.18-123.07.37-68,48.88-123.08,109.18-123.08S326.07,265.11,330.61,332.92Z" transform="translate(-91.24 -108.15)"/><path class="cls-3" d="M303.66,339.62c4.26,69.44-35.88,81.64-79.06,85.68-47.27,4.43-88.54-30.5-80.17-84.06,11.83-75.73,16.58-82.44,80.17-84C265.39,256.17,299.45,271,303.66,339.62Z" transform="translate(-91.24 -108.15)"/><path class="cls-3" d="M256.43,280.49c-.3,0-.49.06-.49.09l9.41-.09h0c-9.13.18,6,0,6,0H233.84c-11.84-.53-10.18,0-26.79-.76L194,279.45c.33-1.79-18,1-18.42-.81l-18.28,5.27c-.2-.59,2.2-5.49,7.72-21.23,3.17-9-6.79-38.64,13.85-33.58a3.27,3.27,0,0,1,.53.17l8.33,3.27a3.82,3.82,0,0,1,.46.21l11.2,6.1.28.17a138,138,0,0,0,20.71,11.63,6.43,6.43,0,0,0,5.07-.07l13.88-7.36.19-.11,10.92-6.57.2-.11,8.46-4.46c21.45-10.6,22.27,21.72,22.27,21.72l1,9c.12,1.05.36,2.82.82,5,2.71,12.62,8.46,19.6,9.7,26.11,11,23.23-16.6-9.13-35.65-10.4-7-.46-12.17-3.21-15.67-2.89" transform="translate(-91.24 -108.15)"/><path class="cls-1" d="M112.2,321.61h-5.83l-10,1.31c-6.37,0-5.58-9.68-4-14.3l6.4-17.33,8.35-20.5,7.47-17.31,8-16.37,5.65-11.48L143.59,192,131.15,319.16c-2.92,15.62-16.94,9-18.34,3Z" transform="translate(-91.24 -108.15)"/><path class="cls-1" d="M330,321.2l5.93,0,10.18,1.3c6.49,0,5.74-10,4.15-14.68l-6.43-17.73-8.4-21L327.9,251.4l-8.07-16.74-5.69-11.74-15.46-34.36,12,130.23c2.88,16,17.19,9.17,18.63,3Z" transform="translate(-91.24 -108.15)"/><text class="cls-4" transform="translate(58.42 246.01) scale(0.97 1)">A T S</text><polygon class="cls-1" points="52.12 88.75 68.57 125.21 41.75 160.81 52.12 88.75"/><polygon class="cls-1" points="210.49 92.61 194.03 129.06 220.85 164.66 210.49 92.61"/><path class="cls-1" d="M91.24,326.29" transform="translate(-91.24 -108.15)"/></svg>