<svg id="Livello_1" data-name="Livello 1" xmlns="http://www.w3.org/2000/svg" viewBox="0 0 532.47 559.82"><defs><style>.cls-1,.cls-4{fill:#ad191b;}.cls-2,.cls-3{fill:#fafafa;}.cls-2{stroke:#fff;stroke-miterlimit:10;}.cls-4{font-size:110.07px;font-family:FranklinGothic-Medium, Franklin Gothic Medium;font-weight:500;}</style></defs><path class="cls-1" d="M533.32,130.23c6.14,71.35-49.76,134.32-124.86,140.64s-138.59-61.66-147.1-117.75C239.87,78.68,303.83,12.48,386.22,12.48,465.84,12.47,533.78,51.39,533.32,130.23Z" transform="translate(-178.31 -12.48)"/><ellipse class="cls-2" cx="147.28" cy="114.51" rx="20.7" ry="20.47"/><ellipse class="cls-2" cx="284.38" cy="108.93" rx="20.7" ry="20.47"/><path class="cls-1" d="M578.58,374.21C587,494.14,543.78,573.46,395,572.28c-119.09-.94-184.46-44.92-183.61-198.07C212,264.82,293.58,176.13,395,176.13S570.94,265.07,578.58,374.21Z" transform="translate(-178.31 -12.48)"/><path class="cls-3" d="M533.26,385c7.16,111.75-60.34,131.39-133,137.9C320.81,530,251.42,473.79,265.49,387.6c19.89-121.88,27.88-132.67,134.81-135.25C468.9,250.7,526.18,274.53,533.26,385Z" transform="translate(-178.31 -12.48)"/><path class="cls-3" d="M453.83,289.83a2.34,2.34,0,0,0-.82.15l15.83-.15h0c-15.36.29,10.1,0,10.1,0h-63.1c-19.91-.85-17.12,0-45-1.21l-22-.46c.56-2.88-30.26,1.55-31-1.3l-30.75,8.48c-.33-.95,3.7-8.83,13-34.17,5.33-14.53-11.41-62.18,23.29-54a9.13,9.13,0,0,1,.89.27l14,5.26a5.82,5.82,0,0,1,.77.34l18.83,9.82.48.28c13.18,8.37,26.2,15.28,34.82,18.71a11.32,11.32,0,0,0,8.52-.11L425,229.85l.31-.17,18.37-10.57a2.68,2.68,0,0,1,.33-.18l14.23-7.19c36.07-17.05,37.45,35,37.45,35l1.61,14.46a80.31,80.31,0,0,0,1.37,8c4.55,20.32,14.22,31.55,16.31,42,18.44,37.38-27.92-14.69-60-16.73-11.77-.75-20.46-5.17-26.34-4.66" transform="translate(-178.31 -12.48)"/><path class="cls-1" d="M213.56,363.91h-9.8L186.91,366c-10.72,0-9.4-15.58-6.74-23l10.77-27.89,14.05-33,12.55-27.86L231,227.91l9.5-18.47,25.82-54.09L245.42,360c-4.9,25.14-28.49,14.54-30.83,4.81Z" transform="translate(-178.31 -12.48)"/><text class="cls-4" transform="translate(95.97 395.92) scale(1.01 1)">A T S</text><polygon class="cls-1" points="348.3 151.6 320.61 218.56 367.22 284.59 348.3 151.6"/><polygon class="cls-1" points="67.83 247.38 117.5 210.77 85.67 151.6 67.83 247.38"/><path class="cls-1" d="M626.64,362.37" transform="translate(-178.31 -12.48)"/><path class="cls-1" d="M170.37,362.37" transform="translate(-178.31 -12.48)"/><path class="cls-1" d="M577.82,357.18l10,.09,17.15,2.28c10.91.1,9.42-15.54,6.65-23l-11.21-28.09-14.59-33.22-13-28.07-14-26.56L549,202l-26.76-54.5,23.16,205.49c5.21,25.27,29.11,14.85,31.4,5.1Z" transform="translate(-178.31 -12.48)"/></svg>