<svg id="Livello_1" data-name="Livello 1" xmlns="http://www.w3.org/2000/svg" viewBox="0 0 308.13 380.74"><defs><style>.cls-1{fill:#ad191b;}.cls-2,.cls-3{fill:#fafafa;}.cls-2{stroke:#fff;stroke-miterlimit:10;}</style></defs><path class="cls-1" d="M523.43,181c4.34,48.53-35.23,91.35-88.39,95.65s-98.11-41.94-104.13-80.09C315.7,145.94,361,100.91,419.3,100.91,475.66,100.91,523.75,127.38,523.43,181Z" transform="translate(-272.12 -100.91)"/><ellipse class="cls-2" cx="104.26" cy="77.88" rx="14.65" ry="13.92"/><ellipse class="cls-2" cx="201.31" cy="74.09" rx="14.65" ry="13.92"/><path class="cls-1" d="M555.47,346.93c5.94,81.57-24.64,135.52-130,134.71-84.3-.64-130.58-30.55-130-134.71.44-74.4,58.19-134.71,130-134.71S550.06,272.71,555.47,346.93Z" transform="translate(-272.12 -100.91)"/><path class="cls-3" d="M523.38,354.27c5.07,76-42.71,89.36-94.11,93.78-56.27,4.85-105.4-33.39-95.44-92,14.08-82.89,19.74-90.23,95.44-92C477.82,262.93,518.37,279.14,523.38,354.27Z" transform="translate(-272.12 -100.91)"/><path class="cls-3" d="M467.15,289.54a1.53,1.53,0,0,0-.57.11l11.2-.11h0c-10.87.2,7.15,0,7.15,0H440.27c-14.1-.58-12.12,0-31.89-.82l-15.58-.31c.4-2-21.42,1-21.92-.89l-21.77,5.77c-.23-.65,2.62-6,9.2-23.24,3.77-9.88-8.08-42.29,16.48-36.75a4.54,4.54,0,0,1,.63.18l9.92,3.58a3.76,3.76,0,0,1,.55.23L399.22,244l.34.19c9.33,5.69,18.55,10.39,24.65,12.72a8.26,8.26,0,0,0,6-.07l16.53-8.06.22-.12,13-7.19.23-.12,10.08-4.88c25.53-11.6,26.51,23.78,26.51,23.78l1.14,9.83a52.77,52.77,0,0,0,1,5.46c3.22,13.82,10.06,21.46,11.55,28.58,13,25.43-19.77-10-42.45-11.38-8.33-.51-14.48-3.52-18.65-3.17" transform="translate(-272.12 -100.91)"/><path class="cls-1" d="M297.07,339.92h-6.93l-11.93,1.45c-7.59,0-6.65-10.6-4.77-15.66l7.62-19L291,284.31l8.89-19,9.54-17.92,6.73-12.56,18.28-36.79L319.62,337.25c-3.46,17.09-20.16,9.88-21.82,3.26Z" transform="translate(-272.12 -100.91)"/><path class="cls-1" d="M387.36,370.18H377.27l-4.19-11.88H352.94l-4.11,11.88h-8.06l17.39-49.89h11.62ZM370.55,351.1l-7.64-22.26-7.63,22.26Z" transform="translate(-272.12 -100.91)"/><path class="cls-1" d="M431.6,370.18H421.47V328H407.54v-7.71h38V328H431.6Z" transform="translate(-272.12 -100.91)"/><path class="cls-1" d="M465.45,358.16l9.17-1.87q1.65,7.43,12.67,7.42c3.35,0,5.92-.63,7.73-1.9a5.62,5.62,0,0,0,2.7-4.71,6.42,6.42,0,0,0-1.23-3.79c-.81-1.16-2.57-2.06-5.25-2.72l-10-2.49a25.47,25.47,0,0,1-7.6-2.9,11.61,11.61,0,0,1-3.93-4.59,14,14,0,0,1-1.48-6.32,12.89,12.89,0,0,1,5.22-10.73q5.22-4,13.36-4a25.43,25.43,0,0,1,12.06,2.81,12.86,12.86,0,0,1,6.78,8l-9,2.12q-2.07-5.67-9.67-5.66-4.41,0-6.74,1.75a5.37,5.37,0,0,0-2.32,4.46q0,4.27,7.29,6l8.91,2.11c5.39,1.3,9,3.2,10.85,5.73a13.78,13.78,0,0,1,2.77,8.35,13.53,13.53,0,0,1-5.82,11.57q-5.81,4.22-15.06,4.22a28.69,28.69,0,0,1-13.64-3.11A15.37,15.37,0,0,1,465.45,358.16Z" transform="translate(-272.12 -100.91)"/><polygon class="cls-1" points="246.56 103.11 226.95 148.65 259.95 193.55 246.56 103.11"/><polygon class="cls-1" points="48.02 168.24 83.18 143.34 60.65 103.11 48.02 168.24"/><path class="cls-1" d="M589.49,338.88" transform="translate(-272.12 -100.91)"/><path class="cls-1" d="M266.5,338.88" transform="translate(-272.12 -100.91)"/><path class="cls-1" d="M554.92,335.35l7.06.06L574.13,337c7.72.07,6.66-10.57,4.7-15.66l-7.93-19.1-10.33-22.6-9.22-19.09-9.88-18.07-7-12.66-18.94-37.07L532,332.46c3.69,17.19,20.61,10.1,22.23,3.48Z" transform="translate(-272.12 -100.91)"/></svg>