<svg id="Livello_1" data-name="Livello 1" xmlns="http://www.w3.org/2000/svg" viewBox="0 0 532.18 255.19"><defs><style>.cls-1{fill:#ad191b;}.cls-2,.cls-3{fill:#fafafa;}.cls-2{stroke:#fff;stroke-miterlimit:10;}</style></defs><rect class="cls-1" x="213.48" y="14.48" width="16.29" height="226.24" rx="5.03"/><path class="cls-1" d="M417,183.86h8.32L451,247.05H440.44l-19.28-51-19.27,51H391.36Zm-13.82,40.89h36.59v8.43H403.18Z" transform="translate(-154.86 -169.38)"/><path class="cls-1" d="M467,245.68a14.05,14.05,0,0,1-5.86-6.28,22.46,22.46,0,0,1-2-9.91v-10a23,23,0,0,1,2-10,13.88,13.88,0,0,1,5.71-6.27,17.82,17.82,0,0,1,9-2.16,15.92,15.92,0,0,1,14,8l-1,9.21a9.82,9.82,0,0,0-1.15-4.91,7.47,7.47,0,0,0-3.32-3.11,11.94,11.94,0,0,0-5.29-1.06q-4.83,0-7.48,2.74t-2.66,7.69v9.82q0,4.9,2.66,7.58t7.48,2.67a11.53,11.53,0,0,0,5.29-1.1,7.66,7.66,0,0,0,3.32-3.2,10.15,10.15,0,0,0,1.15-5l.67,9.52a13.2,13.2,0,0,1-4.85,5.61,14.64,14.64,0,0,1-8.3,2.26A18.81,18.81,0,0,1,467,245.68Zm.19,17.81a15.8,15.8,0,0,1-6.87-5.32l6.6-5.43a13.41,13.41,0,0,0,4.57,3.69,12.49,12.49,0,0,0,5.57,1.31q5.6,0,8.66-2.81t3.06-7.93V201.94h9.76V245.7A21.35,21.35,0,0,1,496,256.35a16.28,16.28,0,0,1-7.3,6.73,26.3,26.3,0,0,1-11.52,2.31A25.29,25.29,0,0,1,467.15,263.49Z" transform="translate(-154.86 -169.38)"/><path class="cls-1" d="M513.32,201.94h9.76v45.11h-9.76Zm30.13,17.77c0-3.19-.9-5.65-2.72-7.39s-4.37-2.6-7.65-2.6-5.66.76-7.39,2.3a8.16,8.16,0,0,0-2.61,6.47l-1-8.69a16.71,16.71,0,0,1,6-6.3,15.63,15.63,0,0,1,8.2-2.21q8.09,0,12.51,4.8t4.42,13.58v27.38h-9.76Z" transform="translate(-154.86 -169.38)"/><path class="cls-1" d="M576.6,245.35a16.53,16.53,0,0,1-7.44-6.89,22.05,22.05,0,0,1-2.56-11v-5.08A24.37,24.37,0,0,1,569.07,211a16.62,16.62,0,0,1,7.15-7.22,23.85,23.85,0,0,1,11.28-2.47,19.25,19.25,0,0,1,10.62,2.82,17.81,17.81,0,0,1,6.72,8.17,32,32,0,0,1,2.32,12.82v3H573.68v-7.12h24.2c-.28-3.68-1.33-6.54-3.13-8.59a9.19,9.19,0,0,0-7.25-3.06c-3.69,0-6.56,1.1-8.58,3.3s-3,5.32-3,9.35v5.73c0,3.74,1.09,6.61,3.25,8.61s5.25,3,9.23,3a16.9,16.9,0,0,0,5.89-1.09,17.27,17.27,0,0,0,5.21-3l6.41,5.82a27.45,27.45,0,0,1-8.27,5,25.71,25.71,0,0,1-9.24,1.76A26.84,26.84,0,0,1,576.6,245.35Z" transform="translate(-154.86 -169.38)"/><path class="cls-1" d="M630.31,235.4a3.68,3.68,0,0,0,.79,2.54,2.79,2.79,0,0,0,2.22.89h4.59v8.43h-5.74c-3.69,0-6.56-1-8.58-3.13s-3-5-3-8.82V183.86h9.76Z" transform="translate(-154.86 -169.38)"/><path class="cls-1" d="M658.67,235.4a3.68,3.68,0,0,0,.79,2.54,2.8,2.8,0,0,0,2.22.89h4.6v8.43h-5.74q-5.55,0-8.59-3.13c-2-2.08-3-5-3-8.82V183.86h9.76Z" transform="translate(-154.86 -169.38)"/><path class="cls-1" d="M682,183.86h.37a4.56,4.56,0,0,1,4.69,4.43h0a4.56,4.56,0,0,1-4.69,4.43H682a4.56,4.56,0,0,1-4.69-4.43h0A4.56,4.56,0,0,1,682,183.86Zm0,18.08h.37a4.56,4.56,0,0,1,4.69,4.43v36.24a4.57,4.57,0,0,1-4.69,4.44H682a4.57,4.57,0,0,1-4.69-4.44V206.37A4.56,4.56,0,0,1,682,201.94Z" transform="translate(-154.86 -169.38)"/><path class="cls-1" d="M397.38,261.3h44.31a2,2,0,0,1,2,1.92v4.6a2,2,0,0,1-2,1.92H397.38a2,2,0,0,1-2-1.92v-4.6A2,2,0,0,1,397.38,261.3Zm19.35,5.18h5.61a2,2,0,0,1,2,1.92v54.26a2,2,0,0,1-2,1.92h-5.61a2,2,0,0,1-2-1.92V268.4A2,2,0,0,1,416.73,266.48Z" transform="translate(-154.86 -169.38)"/><path class="cls-1" d="M453.53,322.88a16.42,16.42,0,0,1-7.32-6.9,22.35,22.35,0,0,1-2.52-11V299.9a24.81,24.81,0,0,1,2.43-11.44,16.51,16.51,0,0,1,7-7.23,23.2,23.2,0,0,1,11.11-2.48,18.66,18.66,0,0,1,10.45,2.83,17.78,17.78,0,0,1,6.62,8.18,32.68,32.68,0,0,1,2.28,12.84v1a2,2,0,0,1-2,1.92h-29a2,2,0,0,1-2-1.92v-3.3a2,2,0,0,1,2-1.92h19.57a2,2,0,0,0,2-2.23,13,13,0,0,0-2.81-6.36,8.94,8.94,0,0,0-7.13-3.07q-5.46,0-8.45,3.31t-3,9.35v5.75c0,3.74,1.06,6.61,3.2,8.61s5.16,3,9.09,3a16.4,16.4,0,0,0,5.79-1.09,17.48,17.48,0,0,0,3.85-2,2,2,0,0,1,2.55.16l3.45,3.19a1.89,1.89,0,0,1-.16,2.91,27.33,27.33,0,0,1-6.39,3.55,25,25,0,0,1-9.09,1.76A26.29,26.29,0,0,1,453.53,322.88Z" transform="translate(-154.86 -169.38)"/><path class="cls-1" d="M505.12,322.92a16.26,16.26,0,0,1-7.23-6.7,21.23,21.23,0,0,1-2.5-10.62v-7.44a20.8,20.8,0,0,1,2.5-10.49,16.17,16.17,0,0,1,7.23-6.63,26,26,0,0,1,11.42-2.29,29.13,29.13,0,0,1,7.18.85,22.25,22.25,0,0,1,6,2.46,16.72,16.72,0,0,1,3.12,2.39,1.87,1.87,0,0,1-.16,2.78l-4,3.35a2,2,0,0,1-2.6,0,14.54,14.54,0,0,0-3.63-2.2,14.77,14.77,0,0,0-5.79-1.18q-5.56,0-8.62,2.88T505,298.16v7.44q0,5.36,3,8.27,3.52,3.39,10.53,2.84l.34,0a14.81,14.81,0,0,0,7.14-3.42,2,2,0,0,1,2.7,0l4.06,3.63a1.86,1.86,0,0,1,.08,2.74,17.33,17.33,0,0,1-3.17,2.39,22.18,22.18,0,0,1-6.05,2.41,29.83,29.83,0,0,1-7.13.83A25.81,25.81,0,0,1,505.12,322.92Z" transform="translate(-154.86 -169.38)"/><path class="cls-1" d="M546.84,261.3h5.61a2,2,0,0,1,2,1.92v59.44a2,2,0,0,1-2,1.92h-5.61a2,2,0,0,1-2-1.92V263.22A2,2,0,0,1,546.84,261.3Zm27.66,35.9q0-4.79-2.68-7.4t-7.53-2.61q-4.71,0-7.28,2.27l0,0a2,2,0,0,1-3.36-1.11l-.07-.61a1.91,1.91,0,0,1,.25-1.19,16.38,16.38,0,0,1,5.58-5.64,15.35,15.35,0,0,1,8.08-2.2q7.95,0,12.31,4.81t4.36,13.6v25.5a2,2,0,0,1-2,1.92H576.5a2,2,0,0,1-2-1.92Z" transform="translate(-154.86 -169.38)"/><path class="cls-1" d="M408.15,396.39a39.78,39.78,0,0,1-8.55-2.61,37,37,0,0,1-7.44-4.35l6.19-6.78a29.29,29.29,0,0,0,8.93,4.7,34.56,34.56,0,0,0,10.58,1.56q7.71,0,11.95-2.54a8,8,0,0,0,4.24-7.2v-.05a7.12,7.12,0,0,0-1.92-5.24,11.86,11.86,0,0,0-5-2.87,63,63,0,0,0-7.87-1.72,1.65,1.65,0,0,0-.32,0,1.08,1.08,0,0,1-.32,0l-.73-.13a84.68,84.68,0,0,1-11.58-2.46,16.35,16.35,0,0,1-7.64-5q-3.17-3.63-3.17-10.33v-.05a16.9,16.9,0,0,1,3-10,18.24,18.24,0,0,1,8.61-6.33,41.55,41.55,0,0,1,21.1-1.44,41.14,41.14,0,0,1,7.26,2.2,43.91,43.91,0,0,1,7.05,3.67l-5.66,7.05a34.69,34.69,0,0,0-8.07-4,25.74,25.74,0,0,0-8.07-1.33q-7.28,0-11.29,2.59a8.24,8.24,0,0,0-4,7.33v0a6.58,6.58,0,0,0,2.07,5.14,12.89,12.89,0,0,0,5.17,2.76,87.13,87.13,0,0,0,8.61,1.85l.36.06.37.07.53.09.54.08a64.13,64.13,0,0,1,10.75,2.79,16.51,16.51,0,0,1,7.22,5.19q2.91,3.6,2.9,9.81V379a16.05,16.05,0,0,1-3.07,9.9,19,19,0,0,1-8.9,6.26,40.9,40.9,0,0,1-14.07,2.15A52.11,52.11,0,0,1,408.15,396.39Z" transform="translate(-154.86 -169.38)"/><path class="cls-1" d="M457.07,333.36H467v63.25h-9.95Zm30.73,35.89q0-4.78-2.78-7.39c-1.85-1.74-4.46-2.61-7.81-2.61s-5.76.75-7.53,2.26A7.94,7.94,0,0,0,467,367.9l-1-8.7a16.93,16.93,0,0,1,6.12-6.2,16.38,16.38,0,0,1,8.36-2.19q8.25,0,12.76,4.8t4.51,13.6v27.4H487.8Z" transform="translate(-154.86 -169.38)"/><path class="cls-1" d="M521,395a16.14,16.14,0,0,1-7.14-6.72,21.46,21.46,0,0,1-2.47-10.64v-7.35a21,21,0,0,1,2.47-10.5,16,16,0,0,1,7.14-6.66,29,29,0,0,1,22.53,0,16.08,16.08,0,0,1,7.15,6.66,21.07,21.07,0,0,1,2.46,10.5v7.48a21.19,21.19,0,0,1-2.46,10.55,16.29,16.29,0,0,1-7.15,6.68A28.74,28.74,0,0,1,521,395Zm19.34-9q2.85-2.91,2.85-8.18v-7.48q0-5.26-2.85-8.13c-1.9-1.92-4.6-2.87-8.07-2.87s-6.17.95-8.08,2.87-2.85,4.62-2.85,8.13v7.48q0,5.26,2.85,8.18t8.08,2.91C535.75,388.82,538.45,387.85,540.35,385.91Z" transform="translate(-154.86 -169.38)"/><path class="cls-1" d="M567.29,351.46h10V415h-10Zm14.44,43.78a12.27,12.27,0,0,1-5.17-5.72l.68-9.44a9.84,9.84,0,0,0,1.17,5,7.68,7.68,0,0,0,3.39,3.13,12.1,12.1,0,0,0,5.39,1.09c3.28,0,5.83-.89,7.63-2.68s2.71-4.3,2.71-7.54v-9.79q0-5-2.71-7.7c-1.8-1.83-4.35-2.74-7.63-2.74a12.7,12.7,0,0,0-5.39,1,7.5,7.5,0,0,0-3.39,3.07,9.54,9.54,0,0,0-1.17,4.85l-1-8.7a16.45,16.45,0,0,1,6-6.11,16.06,16.06,0,0,1,8.24-2.15,18.4,18.4,0,0,1,9.19,2.15,14,14,0,0,1,5.83,6.29,22.71,22.71,0,0,1,2,10V379a21.69,21.69,0,0,1-2.05,9.83,14.14,14.14,0,0,1-6,6.24,19.53,19.53,0,0,1-9.46,2.15A16.21,16.21,0,0,1,581.73,395.24Z" transform="translate(-154.86 -169.38)"/><path class="cls-1" d="M320.77,223.06c2.85,32.53-23.11,61.23-58,64.11s-64.36-28.11-68.31-53.68c-10-33.93,19.72-64.11,58-64.11C289.43,169.38,321,187.12,320.77,223.06Z" transform="translate(-154.86 -169.38)"/><ellipse class="cls-2" cx="69.45" cy="52.2" rx="9.61" ry="9.33"/><ellipse class="cls-2" cx="133.12" cy="49.66" rx="9.61" ry="9.33"/><path class="cls-1" d="M341.79,334.28c3.9,54.67-16.16,90.83-85.26,90.29-55.3-.43-85.66-20.48-85.26-90.29.28-49.87,38.17-90.3,85.26-90.3S338.24,284.53,341.79,334.28Z" transform="translate(-154.86 -169.38)"/><path class="cls-3" d="M320.74,339.2c3.33,50.94-28,59.89-61.74,62.86-36.91,3.24-69.14-22.39-62.6-61.68,9.23-55.56,12.94-60.48,62.6-61.65C290.86,278,317.46,288.84,320.74,339.2Z" transform="translate(-154.86 -169.38)"/><path class="cls-3" d="M283.86,295.81a1.27,1.27,0,0,0-.38.07l7.35-.07h0c-7.13.13,4.69,0,4.69,0h-29.3c-9.25-.38-8,0-20.92-.55l-10.22-.21c.26-1.31-14.05.71-14.38-.59l-14.28,3.87c-.15-.44,1.72-4,6-15.58,2.48-6.63-5.3-28.35,10.82-24.64l.41.13,6.51,2.39.36.16,8.74,4.48.22.12a109.43,109.43,0,0,0,16.17,8.53,5.32,5.32,0,0,0,4-.05l10.84-5.4.15-.08,8.53-4.82.15-.08,6.61-3.27c16.75-7.78,17.39,15.94,17.39,15.94l.75,6.59a33.2,33.2,0,0,0,.64,3.66c2.11,9.26,6.6,14.38,7.57,19.16,8.56,17-13-6.7-27.84-7.63-5.47-.34-9.5-2.36-12.24-2.13" transform="translate(-154.86 -169.38)"/><path class="cls-1" d="M171.23,326h-4.55l-7.83,1c-5,0-4.36-7.11-3.13-10.5l5-12.71,6.53-15,5.83-12.7,6.26-12,4.41-8.42,12-24.66L186,324.18c-2.27,11.46-13.23,6.63-14.31,2.2Z" transform="translate(-154.86 -169.38)"/><path class="cls-1" d="M341.29,325.68l4.63,0,8,1c5.06,0,4.48-7.3,3.24-10.77l-5-13-6.56-15.38-5.87-13-6.3-12.28-4.45-8.61-12.07-25.21,9.4,95.54c2.26,11.74,13.43,6.73,14.55,2.18Z" transform="translate(-154.86 -169.38)"/><polygon class="cls-1" points="40.7 65.11 53.55 91.86 32.61 117.98 40.7 65.11"/><polygon class="cls-1" points="164.37 67.94 151.53 94.68 172.47 120.8 164.37 67.94"/><path class="cls-1" d="M154.86,329.42" transform="translate(-154.86 -169.38)"/></svg>