<svg id="Livello_1" data-name="Livello 1" xmlns="http://www.w3.org/2000/svg" viewBox="0 0 306.56 380.74"><defs><style>.cls-1{fill:#ac1819;}.cls-2,.cls-3{fill:#f9f9f9;}.cls-2{stroke:#fff;stroke-miterlimit:10;}.cls-4{fill:#fff;}.cls-5{fill:#ac191b;}</style></defs><path class="cls-1" d="M516.39,186.47c4.35,48.53-35.22,91.36-88.38,95.66S329.9,240.19,323.88,202c-15.22-50.63,30.06-95.65,88.38-95.65C468.62,106.39,516.72,132.85,516.39,186.47Z" transform="translate(-266.65 -106.39)"/><ellipse class="cls-2" cx="102.69" cy="77.88" rx="14.65" ry="13.92"/><ellipse class="cls-2" cx="199.74" cy="74.09" rx="14.65" ry="13.92"/><path class="cls-1" d="M548.43,352.41c6,81.56-24.63,135.51-130,134.71-84.29-.64-130.57-30.55-130-134.71.44-74.4,58.19-134.72,130-134.72S543,278.18,548.43,352.41Z" transform="translate(-266.65 -106.39)"/><path class="cls-3" d="M516.35,359.75c5.07,76-42.71,89.36-94.12,93.78-56.27,4.84-105.39-33.39-95.43-92,14.08-82.9,19.73-90.24,95.43-92C470.79,268.41,511.34,284.62,516.35,359.75Z" transform="translate(-266.65 -106.39)"/><path class="cls-4" d="M460.12,295a1.89,1.89,0,0,0-.58.1l11.21-.1h0c-10.87.19,7.15,0,7.15,0H433.23c-14.09-.58-12.12,0-31.88-.83l-15.58-.3c.4-2-21.42,1.05-21.92-.89l-21.77,5.77c-.23-.65,2.62-6,9.19-23.24,3.77-9.89-8.08-42.3,16.49-36.76.21,0,.42.12.63.19l9.92,3.57a4.41,4.41,0,0,1,.54.24l13.34,6.68.33.18a169.54,169.54,0,0,0,24.65,12.73,8.34,8.34,0,0,0,6-.07l16.52-8.07.23-.11,13-7.19.23-.12,10.07-4.89c25.54-11.6,26.51,23.78,26.51,23.78l1.14,9.84c.15,1.14.43,3.09,1,5.46,3.22,13.82,10.06,21.46,11.54,28.58,13.05,25.42-19.76-10-42.44-11.38-8.33-.51-14.48-3.52-18.65-3.17" transform="translate(-266.65 -106.39)"/><path class="cls-1" d="M380.33,375.66h-10.1l-4.18-11.88H345.9l-4.1,11.88h-8.06l17.38-49.9h11.63Zm-16.81-19.08-7.64-22.26-7.64,22.26Z" transform="translate(-266.65 -106.39)"/><path class="cls-1" d="M424.57,375.66H414.44V333.48H400.51v-7.72h38v7.72H424.57Z" transform="translate(-266.65 -106.39)"/><path class="cls-1" d="M458.42,363.63l9.17-1.86q1.65,7.43,12.66,7.42c3.35,0,5.93-.64,7.73-1.9a5.61,5.61,0,0,0,2.71-4.72,6.42,6.42,0,0,0-1.23-3.78q-1.23-1.74-5.26-2.72l-10-2.49a25.17,25.17,0,0,1-7.6-2.91,11.43,11.43,0,0,1-3.93-4.58,14,14,0,0,1-1.48-6.33A12.9,12.9,0,0,1,466.4,329q5.22-4,13.35-4a25.33,25.33,0,0,1,12.07,2.82,12.82,12.82,0,0,1,6.77,8l-9,2.12q-2.08-5.67-9.68-5.67-4.41,0-6.73,1.76a5.35,5.35,0,0,0-2.32,4.46q0,4.28,7.29,6l8.9,2.12q8.1,1.94,10.86,5.72a13.86,13.86,0,0,1,2.76,8.36,13.5,13.5,0,0,1-5.81,11.56q-5.81,4.23-15.06,4.23a28.69,28.69,0,0,1-13.64-3.11A15.37,15.37,0,0,1,458.42,363.63Z" transform="translate(-266.65 -106.39)"/><polygon class="cls-1" points="244.99 103.11 225.38 148.65 258.38 193.55 244.99 103.11"/><polygon class="cls-1" points="46.45 168.24 81.61 143.34 59.08 103.11 46.45 168.24"/><path class="cls-5" d="M582.45,344.35" transform="translate(-266.65 -106.39)"/><path class="cls-5" d="M259.47,344.35" transform="translate(-266.65 -106.39)"/><path class="cls-1" d="M547.89,340.83l7.06.06,12.14,1.55c7.72.07,6.67-10.57,4.71-15.67l-7.94-19.1-10.32-22.59L544.31,266l-9.87-18.06-7-12.67-19-37.06,16.4,139.75c3.69,17.19,20.6,10.1,22.23,3.47Z" transform="translate(-266.65 -106.39)"/><path class="cls-1" d="M291.91,339.94l-7-.09-12,1.33c-7.65-.1-6.84-11-5-16.16l7.44-19.4,9.74-22.94,8.72-19.37,9.39-18.3,6.62-12.83,18-37.58L314.62,337.48c-3.28,17.53-20.21,9.9-22,3.07Z" transform="translate(-266.65 -106.39)"/></svg>